<?xml version="1.0" standalone="no"?>
<!DOCTYPE svg PUBLIC "-//W3C//DTD SVG 20010904//EN"
 "http://www.w3.org/TR/2001/REC-SVG-20010904/DTD/svg10.dtd">
<svg version="1.0" xmlns="http://www.w3.org/2000/svg"
 width="300.000000pt" height="300.000000pt" viewBox="0 0 300.000000 300.000000"
 preserveAspectRatio="xMidYMid meet">
<metadata>
Created by potrace 1.11, written by Peter Selinger 2001-2013
</metadata>
<g transform="translate(0.000000,300.000000) scale(0.100000,-0.100000)"
fill="#000000" stroke="none">
<path d="M1320 2990 c-8 -5 -32 -10 -54 -10 -21 0 -57 -5 -80 -11 -22 -6 -59
-15 -81 -21 -238 -63 -478 -202 -662 -386 -199 -197 -339 -446 -404 -717 -33
-138 -50 -435 -30 -530 5 -27 15 -79 22 -115 40 -221 178 -506 324 -669 255
-286 541 -447 905 -513 70 -13 392 -16 450 -4 19 4 62 12 95 18 157 28 383
122 526 218 224 150 408 364 523 604 49 102 98 249 115 346 7 36 17 88 22 115
11 51 7 339 -5 405 -47 254 -130 460 -263 647 -99 139 -250 288 -380 375 -152
102 -379 197 -538 226 -33 6 -76 14 -95 18 -60 12 -374 15 -390 4z m34 -1170
l36 -40 0 -166 c0 -199 -8 -232 -70 -295 -60 -60 -113 -73 -200 -49 -182 49
-203 352 -31 448 15 9 51 13 100 12 42 -1 80 -2 84 -1 5 1 -3 15 -17 32 -17
20 -26 43 -26 65 0 34 1 34 44 34 38 0 48 -5 80 -40z m574 -109 c11 -6 33 -26
46 -44 47 -62 56 -106 56 -282 l0 -162 -38 -42 c-32 -35 -43 -41 -78 -41 -39
0 -42 2 -48 32 -5 27 -1 37 24 63 16 17 30 33 30 36 0 3 -39 4 -87 1 -99 -4
-130 8 -175 70 -35 46 -48 91 -48 165 0 183 162 287 318 204z m454 3 c36 -19
83 -78 97 -123 33 -110 -5 -251 -78 -295 -61 -36 -116 -46 -169 -30 -62 19
-88 37 -116 83 -69 109 -37 308 57 358 64 33 150 36 209 7z m-1558 -8 c51 -30
84 -86 97 -168 11 -66 4 -108 -30 -176 -24 -49 -53 -72 -115 -93 -52 -17 -60
-17 -108 -2 -75 22 -107 48 -134 110 -18 39 -24 72 -24 122 0 98 35 170 104
212 48 29 157 26 210 -5z m734 -208 l-3 -233 -50 0 -50 0 -3 233 -2 232 55 0
55 0 -2 -232z"/>
<path d="M1128 1625 c-83 -83 -45 -275 54 -275 28 0 38 7 61 42 80 124 -21
328 -115 233z"/>
<path d="M1761 1626 c-60 -64 -44 -229 25 -266 71 -38 132 55 118 178 -12 100
-88 147 -143 88z"/>
<path d="M2241 1634 c-67 -47 -69 -209 -3 -267 32 -29 82 -19 109 22 18 27 23
48 23 103 0 75 -15 117 -52 142 -29 20 -48 20 -77 0z"/>
<path d="M674 1632 c-61 -49 -70 -189 -17 -253 53 -62 133 -22 147 75 20 133
-56 238 -130 178z"/>
</g>
</svg>
